<svg width="157" height="36" viewBox="0 0 157 36" fill="none" xmlns="http://www.w3.org/2000/svg">
<g clip-path="url(#clip0_1_3026)">
<path d="M0 36.0595V-0.0594597H12.4576V3.93028H5.93844C5.41878 3.92245 4.90383 3.81759 4.4233 3.62037C3.93496 3.40906 3.4967 3.09915 3.1367 2.71098C3.49043 3.10698 3.75965 3.57185 3.92557 4.07585C4.15096 4.54072 4.26991 5.04784 4.27774 5.56437V30.3746C4.26835 30.8974 4.14783 31.4108 3.92557 31.8835C3.71426 32.3593 3.41843 32.7929 3.05374 33.1654C3.42313 32.8023 3.85983 32.5143 4.34035 32.3171C4.81617 32.1026 5.3327 32.0713 5.85548 32.0698H12.4576V36.0595H0Z" fill="#EB5A21"/>
<path d="M12.9663 7.07323H17.2424V10.8564C17.2706 11.4011 17.2706 11.9457 17.2424 12.4904C17.1344 13.0414 16.9951 13.5877 16.8276 14.1245L17.2424 12.5124C17.3817 11.9802 17.5836 11.4668 17.845 10.9831C18.493 9.64645 19.5183 8.52575 20.7939 7.75723C21.9099 7.09044 23.1871 6.73983 24.4894 6.74453C25.3565 6.72418 26.2221 6.85723 27.0423 7.1374C27.709 7.3894 28.3273 7.75253 28.8689 8.2127C29.3603 8.62436 29.7814 9.11427 30.1148 9.66053C30.4216 10.1958 30.6657 10.7656 30.841 11.3557C30.9929 11.8878 31.0758 12.4357 31.0899 12.9897C31.1337 13.5329 31.1337 14.0791 31.0899 14.6238C31.1666 13.6143 31.4061 12.6235 31.7958 11.6875C32.148 10.775 32.6536 9.92975 33.2906 9.18627C33.8979 8.43966 34.6539 7.82766 35.5116 7.38784C36.4602 6.94645 37.4963 6.72575 38.5435 6.74766C39.5953 6.65531 40.6518 6.85253 41.5988 7.31427C42.5473 7.77758 43.3487 8.48818 43.92 9.37253C45.1033 11.6249 45.6558 14.1527 45.5181 16.6915V28.8892H41.303V17.6009C41.4078 15.9011 41.0416 14.2059 40.2449 12.7002C39.9334 12.1805 39.4889 11.7532 38.9551 11.4621C38.4214 11.171 37.8203 11.0285 37.213 11.0473C36.587 11.0614 35.9671 11.1866 35.3864 11.4198C34.6476 11.7423 34.0043 12.2478 33.5176 12.888C32.8383 13.7567 32.3311 14.7459 32.0228 15.8024C31.5438 17.363 31.3184 18.9892 31.3591 20.6202V28.8908H27.2066V17.6024C27.3224 15.8854 26.9859 14.1684 26.2315 12.6204C25.9294 12.1164 25.4958 11.7031 24.9762 11.4261C24.4565 11.1491 23.8711 11.0191 23.2826 11.0489C22.5626 11.0677 21.8551 11.2414 21.2103 11.5591C20.5654 11.8769 19.9972 12.3308 19.5449 12.8896C18.8374 13.752 18.3021 14.7412 17.9671 15.804C17.4537 17.3567 17.208 18.9861 17.2409 20.6217V28.8924H12.9647V7.08105L12.9663 7.07323Z" fill="#EB5A21"/>
<path d="M45.8452 -0.0594597H58.3028V36.0595H45.8452V32.0698H52.4066C52.9231 32.0745 53.4318 32.1871 53.9014 32.4C54.3819 32.5957 54.8186 32.8837 55.188 33.2484C54.8296 32.8758 54.5416 32.4407 54.3365 31.9664C54.1315 31.4891 54.0188 30.9772 54.0047 30.4576V5.64732C53.9969 5.10732 54.1033 4.57202 54.3162 4.07585C54.5103 3.59532 54.7998 3.16019 55.1676 2.79393C54.8061 3.18367 54.3678 3.49359 53.881 3.70332C53.4068 3.90054 52.8997 4.00541 52.3863 4.01324H45.8468V-0.0594597H45.8452Z" fill="#EB5A21"/>
<path d="M73.5996 29.0504C72.0454 29.0535 70.5005 28.8313 69.012 28.3883C67.6017 27.9736 66.2932 27.2692 65.1709 26.3207C64.0534 25.3675 63.1612 24.1826 62.5555 22.8475C61.8558 21.3026 61.5162 19.6216 61.5584 17.9264C61.5193 16.2391 61.8605 14.5659 62.5555 13.0257C63.1612 11.6906 64.0534 10.5057 65.1709 9.55251C66.2932 8.60398 67.6002 7.89964 69.012 7.48486C70.5005 7.0419 72.0469 6.81964 73.5996 6.82277C75.1696 6.81338 76.7301 7.04347 78.2296 7.5052C79.6273 7.95129 80.9296 8.65251 82.0706 9.57285C83.1929 10.5182 84.0929 11.6969 84.708 13.0257C85.3857 14.569 85.7191 16.2407 85.6831 17.9264C85.7222 19.6184 85.3889 21.2979 84.708 22.8475C84.0866 24.1779 83.1882 25.3628 82.0706 26.3207C80.9405 27.2567 79.6351 27.9595 78.2296 28.3883C76.7269 28.8329 75.168 29.0567 73.5996 29.0504ZM73.5996 10.4431C72.612 10.4462 71.6306 10.6075 70.693 10.9189C69.7805 11.232 68.94 11.7235 68.2231 12.3668C67.4656 13.0085 66.8567 13.8052 66.4372 14.7036C65.9849 15.7179 65.7579 16.8182 65.7736 17.9295C65.7485 19.0706 65.9598 20.2038 66.3965 21.2588C66.7612 22.1494 67.3216 22.9476 68.0369 23.5956C68.7882 24.2155 69.6569 24.6788 70.5897 24.9605C72.5509 25.5662 74.6499 25.5662 76.6111 24.9605C77.5299 24.6662 78.3767 24.1873 79.1029 23.5549C79.8308 22.9054 80.4115 22.1087 80.8059 21.2181C81.2426 20.1772 81.4555 19.0581 81.4289 17.9311C81.4461 16.8245 81.2348 15.7273 80.8059 14.7052C80.4036 13.8021 79.8089 12.9991 79.0623 12.348C78.3282 11.7172 77.4845 11.2257 76.5704 10.9002C75.6156 10.573 74.6108 10.4134 73.6012 10.4243V10.4447L73.5996 10.4431Z" fill="#0E4486"/>
<path d="M85.5595 7.07321H90.169L96.397 23.6129C96.5864 24.1278 96.7195 24.6616 96.7915 25.2047C96.8948 25.7838 96.937 26.3207 96.9777 26.8169C96.9183 26.2816 96.9183 25.74 96.9777 25.2047C97.0732 24.6678 97.1984 24.1356 97.3518 23.6129L103.456 7.07321H108.003L100.031 28.8845H93.8035L85.561 7.07321H85.5595Z" fill="#0E4486"/>
<path d="M110.368 7.07324H114.624V11.5592C114.627 12.0428 114.593 12.528 114.521 13.007C114.521 13.5438 114.375 14.0197 114.292 14.4548C114.292 14.0212 114.478 13.5454 114.624 13.007C114.74 12.5233 114.921 12.0569 115.164 11.6218C115.915 10.0378 117.131 8.71828 118.651 7.83863C119.985 7.09672 121.484 6.69915 123.012 6.68037C124.295 6.62402 125.563 6.96368 126.645 7.65237C127.561 8.2675 128.309 9.09863 128.825 10.0706C129.415 11.1647 129.829 12.3433 130.051 13.5642C130.303 14.9275 130.428 16.3127 130.425 17.6995V28.8845H126.149V17.7199C126.243 16.0059 125.847 14.2983 125.006 12.7988C124.668 12.2212 124.177 11.747 123.588 11.4277C122.999 11.1068 122.334 10.9518 121.663 10.98C120.955 10.9988 120.256 11.124 119.587 11.3525C118.711 11.6374 117.919 12.1352 117.283 12.8004C116.455 13.6425 115.806 14.6395 115.374 15.7367C114.82 17.3019 114.566 18.9564 114.626 20.6155V28.8861H110.37V7.07481L110.368 7.07324Z" fill="#0E4486"/>
<path d="M150.086 23.4485C149.807 24.3203 149.348 25.1233 148.736 25.8057C148.134 26.4537 147.433 27.0062 146.659 27.4398C145.841 27.8796 144.969 28.213 144.064 28.4322C143.152 28.6356 142.219 28.7405 141.283 28.7421C140.22 28.7436 139.16 28.62 138.127 28.3696C137.169 28.1254 136.258 27.7278 135.429 27.1909C134.659 26.6932 134.014 26.0295 133.54 25.2469C133.084 24.4706 132.854 23.5831 132.876 22.6831C132.831 22.0242 132.921 21.3636 133.142 20.7407C133.364 20.1177 133.712 19.548 134.163 19.0643C135.074 18.2035 136.188 17.5852 137.401 17.2659C138.752 16.8777 140.148 16.6633 141.554 16.6242L145.706 16.5005C146.78 16.4849 147.85 16.3753 148.904 16.1702C149.755 16.0043 150.15 15.6115 150.129 15.012C150.164 14.3295 150.029 13.6502 149.735 13.0335C149.442 12.4169 148.999 11.8816 148.448 11.4762C146.999 10.6967 145.359 10.3398 143.715 10.4431C142.923 10.4431 142.133 10.4979 141.349 10.609C140.622 10.7061 139.919 10.9299 139.273 11.2711C138.706 11.5889 138.223 12.0349 137.861 12.5734C137.464 13.1995 137.209 13.9054 137.113 14.641L133.375 14.1245C133.486 12.9302 133.884 11.7814 134.538 10.7749C135.189 9.85303 136.041 9.09077 137.03 8.54138C138.016 7.96851 139.088 7.55529 140.206 7.32207C141.352 7.07633 142.521 6.95112 143.693 6.94955C144.992 6.94955 146.288 7.09355 147.555 7.38312C148.757 7.65077 149.902 8.12659 150.939 8.78868C151.928 9.4539 152.74 10.3476 153.305 11.3932C153.958 12.6704 154.265 14.0963 154.197 15.5285V23.4266C154.171 23.6269 154.185 23.8304 154.238 24.0261C154.291 24.2217 154.382 24.4033 154.507 24.5629C154.803 24.7523 155.154 24.84 155.504 24.8102H156.522V28.9456H153.635C153.149 28.969 152.663 28.8908 152.21 28.717C151.756 28.5433 151.342 28.2756 151 27.9329C150.683 27.6151 150.433 27.2379 150.266 26.8215C150.098 26.4052 150.015 25.9607 150.023 25.513L150.086 23.4454V23.4485ZM137.027 22.5375C137.016 23.0729 137.168 23.5988 137.464 24.0464C137.761 24.4722 138.151 24.8259 138.605 25.0795C139.138 25.3659 139.713 25.5678 140.308 25.6789C140.99 25.8245 141.687 25.8934 142.383 25.8856C143.307 25.8856 144.227 25.7744 145.124 25.5553C146.002 25.3675 146.849 25.0544 147.636 24.6256C148.34 24.2483 148.962 23.7349 149.463 23.1167C149.949 22.5391 150.208 21.8035 150.189 21.049V18.2379C149.486 18.6151 148.719 18.853 147.926 18.9407C147.011 19.044 146.077 19.1269 145.102 19.1473L142.216 19.2506C141.349 19.2647 140.485 19.3758 139.641 19.5809C138.946 19.753 138.304 20.0942 137.772 20.5732C137.514 20.8283 137.313 21.1367 137.185 21.4748C137.057 21.8129 137.002 22.176 137.024 22.5375H137.027Z" fill="#0E4486"/>
</g>
<defs>
<clipPath id="clip0_1_3026">
<rect width="156.522" height="36" fill="white"/>
</clipPath>
</defs>
</svg>
