<svg width="512" height="512" viewBox="0 0 512 512" fill="none" xmlns="http://www.w3.org/2000/svg">
  <rect width="512" height="512" rx="96" fill="#0E4486"/>
  <g transform="translate(256 256)">
    <g transform="scale(6.5) translate(-29 -18)">
      <path d="M0 36.0594V-0.0595703H12.4576V3.93017H5.93844C5.41878 3.92234 4.90383 3.81748 4.4233 3.62026C3.93496 3.40895 3.4967 3.09904 3.1367 2.71087C3.49043 3.10687 3.75965 3.57174 3.92557 4.07574C4.15096 4.54061 4.26991 5.04773 4.27774 5.56426V30.3745C4.26835 30.8973 4.14783 31.4107 3.92557 31.8834C3.71426 32.3592 3.41843 32.7928 3.05374 33.1653C3.42313 32.8022 3.85983 32.5142 4.34035 32.317C4.81617 32.1025 5.3327 32.0712 5.85548 32.0697H12.4576V36.0594H0Z" fill="#EB5A21"/>
      <path d="M12.9664 7.0731H17.2425V10.8563C17.2707 11.401 17.2707 11.9456 17.2425 12.4903C17.1345 13.0413 16.9952 13.5876 16.8277 14.1244L17.2425 12.5123C17.3818 11.9801 17.5837 11.4667 17.8451 10.983C18.4931 9.64632 19.5184 8.52562 20.794 7.7571C21.91 7.09031 23.1872 6.7397 24.4895 6.7444C25.3566 6.72405 26.2222 6.8571 27.0424 7.13727C27.7091 7.38927 28.3274 7.7524 28.869 8.21257C29.3604 8.62423 29.7815 9.11414 30.1149 9.6604C30.4217 10.1957 30.6658 10.7655 30.8411 11.3556C30.993 11.8877 31.0759 12.4356 31.09 12.9896C31.1338 13.5328 31.1338 14.079 31.09 14.6237C31.1667 13.6142 31.4062 12.6234 31.7959 11.6874C32.1481 10.7749 32.6537 9.92962 33.2907 9.18614C33.898 8.43953 34.654 7.82753 35.5117 7.38771C36.4603 6.94632 37.4964 6.72562 38.5436 6.74753C39.5954 6.65518 40.6519 6.8524 41.5989 7.31414C42.5474 7.77745 43.3488 8.48805 43.9201 9.3724C45.1034 11.6248 45.6559 14.1526 45.5182 16.6914V28.8891H41.3031V17.6008C41.4079 15.901 41.0417 14.2058 40.245 12.7001C39.9335 12.1804 39.489 11.7531 38.9552 11.462C38.4215 11.1709 37.8204 11.0284 37.2131 11.0472C36.5871 11.0613 35.9672 11.1865 35.3865 11.4197C34.6477 11.7422 34.0044 12.2477 33.5177 12.8879C32.8384 13.7566 32.3312 14.7458 32.0229 15.8023C31.5439 17.3629 31.3185 18.9891 31.3592 20.6201V28.8907H27.2067V17.6023C27.3225 15.8853 26.986 14.1683 26.2316 12.6203C25.9295 12.1163 25.4959 11.703 24.9763 11.426C24.4566 11.149 23.8712 11.019 23.2827 11.0488C22.5627 11.0676 21.8552 11.2413 21.2104 11.559C20.5655 11.8768 19.9973 12.3307 19.545 12.8895C18.8375 13.7519 18.3022 14.7411 17.9672 15.8039C17.4538 17.3566 17.2081 18.986 17.241 20.6216V28.8923H12.9648V7.08092L12.9664 7.0731Z" fill="#EB5A21"/>
      <path d="M45.8452 -0.0595703H58.3028V36.0594H45.8452V32.0697H52.4066C52.9231 32.0744 53.4318 32.187 53.9014 32.3999C54.3819 32.5956 54.8186 32.8836 55.188 33.2483C54.8296 32.8757 54.5416 32.4406 54.3365 31.9663C54.1315 31.489 54.0188 30.9771 54.0047 30.4575V5.64721C53.9969 5.10721 54.1033 4.57191 54.3162 4.07574C54.5103 3.59521 54.7998 3.16008 55.1676 2.79382C54.8061 3.18356 54.3678 3.49348 53.881 3.70321C53.4068 3.90043 52.8997 4.0053 52.3863 4.01313H45.8468V-0.0595703H45.8452Z" fill="#EB5A21"/>
    </g>
  </g>
</svg>
